 <svg  version="1.0" xmlns="http://www.w3.org/2000/svg"  width="300.000000pt" height="295.000000pt" viewBox="0 0 300.000000 295.000000"  preserveAspectRatio="xMidYMid meet">  <g transform="translate(0.000000,295.000000) scale(0.100000,-0.100000)" fill="#000000" stroke="none"> <path d="M1640 2932 c-47 -16 -39 -61 25 -134 102 -115 157 -258 170 -438 5 -74 5 -74 -20 44 -30 147 -49 206 -88 275 -54 96 -225 251 -277 251 -45 0 -55 -23 -54 -119 3 -209 81 -417 209 -560 36 -39 68 -83 71 -98 4 -15 0 -65 -10 -112 -9 -47 -21 -117 -28 -156 -10 -63 -15 -74 -52 -108 -68 -63 -104 -77 -198 -77 -257 0 -432 -63 -593 -212 -184 -171 -295 -386 -340 -658 -20 -117 -16 -292 9 -395 9 -38 10 -53 2 -41 -44 73 -53 81 -83 84 -47 5 -68 -33 -67 -118 1 -109 59 -207 150 -251 40 -19 57 -21 127 -16 78 5 81 5 109 -23 16 -16 43 -33 61 -38 18 -5 140 -7 272 -4 132 2 303 0 380 -6 194 -15 222 -6 197 60 -15 40 6 24 24 -18 20 -48 38 -44 31 6 -6 44 -43 100 -85 128 -21 14 -49 17 -142 17 l-117 -1 56 41 c31 23 98 89 150 147 l94 106 24 -71 c31 -91 99 -236 145 -309 50 -77 95 -98 215 -98 146 0 187 28 150 106 -19 38 -47 59 -114 83 -47 16 -49 19 -72 86 -21 60 -25 88 -25 200 0 166 11 202 79 274 79 83 159 201 193 283 52 124 66 271 37 381 -8 32 -15 71 -15 88 0 33 18 44 123 75 100 29 177 102 177 165 0 15 7 32 15 39 24 20 18 54 -18 101 -19 24 -56 78 -84 119 -105 157 -205 218 -382 236 -80 8 -73 -3 -96 134 -33 195 -76 311 -156 416 -56 73 -142 129 -179 116z m537 -883 c16 -16 5 -39 -18 -39 -12 0 -19 7 -19 18 0 31 17 41 37 21z m-798 -1205 c74 -64 122 -174 120 -279 -2 -98 -15 -104 -21 -10 -9 122 -37 194 -102 260 -28 28 -62 59 -76 68 l-25 16 31 -10 c18 -6 50 -26 73 -45z"/> </g> </svg> 