<svg id="visual" viewBox="0 0 900 600" width="900" height="600" xmlns="http://www.w3.org/2000/svg" xmlns:xlink="http://www.w3.org/1999/xlink" version="1.1"><path d="M0 470L13.7 477.8C27.3 485.7 54.7 501.3 82 504.5C109.3 507.7 136.7 498.3 163.8 487.8C191 477.3 218 465.7 245.2 474.8C272.3 484 299.7 514 327 519.8C354.3 525.7 381.7 507.3 409 489.7C436.3 472 463.7 455 491 449.3C518.3 443.7 545.7 449.3 573 452.3C600.3 455.3 627.7 455.7 654.8 452C682 448.3 709 440.7 736.2 443C763.3 445.3 790.7 457.7 818 473C845.3 488.3 872.7 506.7 886.3 515.8L900 525L900 601L886.3 601C872.7 601 845.3 601 818 601C790.7 601 763.3 601 736.2 601C709 601 682 601 654.8 601C627.7 601 600.3 601 573 601C545.7 601 518.3 601 491 601C463.7 601 436.3 601 409 601C381.7 601 354.3 601 327 601C299.7 601 272.3 601 245.2 601C218 601 191 601 163.8 601C136.7 601 109.3 601 82 601C54.7 601 27.3 601 13.7 601L0 601Z" fill="#001122"></path><path d="M0 493L13.7 495.2C27.3 497.3 54.7 501.7 82 511.8C109.3 522 136.7 538 163.8 546.2C191 554.3 218 554.7 245.2 548.2C272.3 541.7 299.7 528.3 327 513C354.3 497.7 381.7 480.3 409 473.8C436.3 467.3 463.7 471.7 491 479.3C518.3 487 545.7 498 573 507.8C600.3 517.7 627.7 526.3 654.8 528.2C682 530 709 525 736.2 516.5C763.3 508 790.7 496 818 497C845.3 498 872.7 512 886.3 519L900 526L900 601L886.3 601C872.7 601 845.3 601 818 601C790.7 601 763.3 601 736.2 601C709 601 682 601 654.8 601C627.7 601 600.3 601 573 601C545.7 601 518.3 601 491 601C463.7 601 436.3 601 409 601C381.7 601 354.3 601 327 601C299.7 601 272.3 601 245.2 601C218 601 191 601 163.8 601C136.7 601 109.3 601 82 601C54.7 601 27.3 601 13.7 601L0 601Z" fill="#001433"></path><path d="M0 537L13.7 540.8C27.3 544.7 54.7 552.3 82 547.7C109.3 543 136.7 526 163.8 522.2C191 518.3 218 527.7 245.2 529.8C272.3 532 299.7 527 327 530.8C354.3 534.7 381.7 547.3 409 550.8C436.3 554.3 463.7 548.7 491 540.3C518.3 532 545.7 521 573 518.5C600.3 516 627.7 522 654.8 530.8C682 539.7 709 551.3 736.2 544.3C763.3 537.3 790.7 511.7 818 499.2C845.3 486.7 872.7 487.3 886.3 487.7L900 488L900 601L886.3 601C872.7 601 845.3 601 818 601C790.7 601 763.3 601 736.2 601C709 601 682 601 654.8 601C627.7 601 600.3 601 573 601C545.7 601 518.3 601 491 601C463.7 601 436.3 601 409 601C381.7 601 354.3 601 327 601C299.7 601 272.3 601 245.2 601C218 601 191 601 163.8 601C136.7 601 109.3 601 82 601C54.7 601 27.3 601 13.7 601L0 601Z" fill="#001443"></path><path d="M0 530L13.7 533.3C27.3 536.7 54.7 543.3 82 552C109.3 560.7 136.7 571.3 163.8 568C191 564.7 218 547.3 245.2 538.8C272.3 530.3 299.7 530.7 327 535C354.3 539.3 381.7 547.7 409 551.2C436.3 554.7 463.7 553.3 491 547C518.3 540.7 545.7 529.3 573 533C600.3 536.7 627.7 555.3 654.8 558.3C682 561.3 709 548.7 736.2 543.3C763.3 538 790.7 540 818 545.5C845.3 551 872.7 560 886.3 564.5L900 569L900 601L886.3 601C872.7 601 845.3 601 818 601C790.7 601 763.3 601 736.2 601C709 601 682 601 654.8 601C627.7 601 600.3 601 573 601C545.7 601 518.3 601 491 601C463.7 601 436.3 601 409 601C381.7 601 354.3 601 327 601C299.7 601 272.3 601 245.2 601C218 601 191 601 163.8 601C136.7 601 109.3 601 82 601C54.7 601 27.3 601 13.7 601L0 601Z" fill="#0f0f50"></path><path d="M0 593L13.7 593.2C27.3 593.3 54.7 593.7 82 594C109.3 594.3 136.7 594.7 163.8 591C191 587.3 218 579.7 245.2 579.2C272.3 578.7 299.7 585.3 327 582C354.3 578.7 381.7 565.3 409 559.3C436.3 553.3 463.7 554.7 491 561.7C518.3 568.7 545.7 581.3 573 585.2C600.3 589 627.7 584 654.8 577.3C682 570.7 709 562.3 736.2 564.7C763.3 567 790.7 580 818 583.7C845.3 587.3 872.7 581.7 886.3 578.8L900 576L900 601L886.3 601C872.7 601 845.3 601 818 601C790.7 601 763.3 601 736.2 601C709 601 682 601 654.8 601C627.7 601 600.3 601 573 601C545.7 601 518.3 601 491 601C463.7 601 436.3 601 409 601C381.7 601 354.3 601 327 601C299.7 601 272.3 601 245.2 601C218 601 191 601 163.8 601C136.7 601 109.3 601 82 601C54.7 601 27.3 601 13.7 601L0 601Z" fill="#260059"></path></svg>